<?xml version="1.0" encoding="utf-8"?>
<svg viewBox="0 0 48 48" xmlns="http://www.w3.org/2000/svg" xml:space="preserve">
  <!-- Anima Companion favicon — paw print: 4 purple toe pads + 1 orange central pad with white heart -->
  <!-- 4 toe pads (purple) -->
  <ellipse cx="14" cy="16" rx="4" ry="5.5" fill="#7C3AED" />
  <ellipse cx="23" cy="11" rx="4" ry="5.5" fill="#7C3AED" />
  <ellipse cx="32" cy="11" rx="4" ry="5.5" fill="#7C3AED" />
  <ellipse cx="34" cy="16" rx="4" ry="5.5" fill="#7C3AED" />
  <!-- Central pad (orange) -->
  <path d="M24 22c-6 0-11 4.5-11 10.5 0 4.5 3 7.5 6 7.5 1.8 0 3-.6 4-1.2 1-.6 1.6-.6 2.6 0 1 .6 2.2 1.2 4 1.2 3 0 6-3 6-7.5 0-6-5-10.5-11-10.5z" fill="#F97316" />
  <!-- White heart cutout -->
  <path d="M24 33.2c-.7-.7-1.8-.7-2.5 0-.4.4-.5 1-.3 1.5.3.8 1.4 1.4 2.8 2.3 1.4-.9 2.5-1.5 2.8-2.3.2-.5.1-1.1-.3-1.5-.7-.7-1.8-.7-2.5 0z" fill="#FFFFFF" fill-opacity="0.92" />
</svg>
